<svg width="19" height="23" viewBox="0 0 19 23" fill="none" xmlns="http://www.w3.org/2000/svg">
<g clip-path="url(#clip0_200_334)">
<path d="M9.49998 0.5C10.4538 0.5 11.2273 1.25784 11.2273 2.19231V3.88462H7.77271V2.19231C7.77271 1.25784 8.5462 0.5 9.49998 0.5Z" fill="#B9C1D2"/>
<path d="M11.9948 20.6489C11.6887 21.7167 10.6875 22.4999 9.49996 22.4999C8.31246 22.4999 7.31118 21.7167 7.00513 20.6489H11.9948Z" fill="#B9C1D2"/>
<path d="M16.1068 10.654L15.9773 8.96165C15.7414 5.62675 12.9119 3.03963 9.50001 3.03857C6.08811 3.03963 3.25862 5.62675 3.02274 8.96165L2.89319 10.654C2.72964 12.8973 1.91782 15.0481 0.552737 16.8563C0.192169 17.3306 -0.00160925 17.9066 1.00669e-05 18.4978C1.00669e-05 19.3064 0.668789 19.9617 1.4941 19.9617H17.5059C18.3312 19.9617 19 19.3064 19 18.4978C19.0005 17.9134 18.81 17.3439 18.4559 16.8732C17.0844 15.0614 16.2698 12.9037 16.1068 10.654Z" fill="#B9C1D2"/>
<path d="M15.5454 9.80781C17.4533 9.80781 18.9999 8.29246 18.9999 6.42319C18.9999 4.55392 17.4533 3.03857 15.5454 3.03857C13.6375 3.03857 12.0908 4.55392 12.0908 6.42319C12.0908 8.29246 13.6375 9.80781 15.5454 9.80781Z" fill="#FC7100"/>
</g>
<defs>
<clipPath id="clip0_200_334">
<rect width="19" height="22" fill="white" transform="translate(0 0.5)"/>
</clipPath>
</defs>
</svg>
