<svg width="10" height="10" viewBox="0 0 10 10" fill="none" xmlns="http://www.w3.org/2000/svg">
<path fill-rule="evenodd" clip-rule="evenodd" d="M8.97747 2.12949C9.09464 2.24669 9.16046 2.40564 9.16046 2.57136C9.16046 2.73709 9.09464 2.89603 8.97747 3.01324L4.29289 7.69782C4.23098 7.75974 4.15748 7.80886 4.07659 7.84238C3.99569 7.87589 3.90899 7.89314 3.82143 7.89314C3.73387 7.89314 3.64716 7.87589 3.56627 7.84238C3.48538 7.80886 3.41188 7.75974 3.34997 7.69782L1.02247 5.37074C0.962776 5.31308 0.915162 5.24412 0.882407 5.16787C0.849651 5.09161 0.83241 5.0096 0.831689 4.92661C0.830968 4.84363 0.846781 4.76133 0.878207 4.68452C0.909632 4.60771 0.95604 4.53793 1.01472 4.47924C1.07341 4.42056 1.14319 4.37415 1.22 4.34273C1.29681 4.3113 1.37911 4.29549 1.4621 4.29621C1.54508 4.29693 1.6271 4.31417 1.70335 4.34693C1.7796 4.37968 1.84857 4.4273 1.90622 4.48699L3.82122 6.40199L8.0933 2.12949C8.15135 2.07141 8.22026 2.02534 8.29612 1.9939C8.37197 1.96247 8.45328 1.94629 8.53539 1.94629C8.6175 1.94629 8.6988 1.96247 8.77466 1.9939C8.85051 2.02534 8.91943 2.07141 8.97747 2.12949Z" fill="#3BBEFC"/>
</svg>
